<svg width="300" height="200" viewBox="0 0 300 200" fill="none" xmlns="http://www.w3.org/2000/svg">
<rect width="300" height="200" fill="#1E1E1E"/>
<rect x="27.5" y="81.5" width="53" height="37" stroke="white" stroke-width="3"/>
<rect x="80.5" y="81.5" width="53" height="37" stroke="white" stroke-width="3"/>
<rect x="133.5" y="81.5" width="53" height="37" stroke="white" stroke-width="3"/>
<rect x="222.5" y="81.5" width="53" height="37" stroke="white" stroke-width="3"/>
<path d="M196.395 101.674C196.395 101.236 196.522 100.872 196.777 100.58C197.042 100.288 197.434 100.143 197.953 100.143C198.473 100.143 198.865 100.288 199.129 100.58C199.402 100.872 199.539 101.236 199.539 101.674C199.539 102.093 199.402 102.444 199.129 102.727C198.865 103.009 198.473 103.15 197.953 103.15C197.434 103.15 197.042 103.009 196.777 102.727C196.522 102.444 196.395 102.093 196.395 101.674ZM203.777 101.674C203.777 101.236 203.905 100.872 204.16 100.58C204.424 100.288 204.816 100.143 205.336 100.143C205.855 100.143 206.247 100.288 206.512 100.58C206.785 100.872 206.922 101.236 206.922 101.674C206.922 102.093 206.785 102.444 206.512 102.727C206.247 103.009 205.855 103.15 205.336 103.15C204.816 103.15 204.424 103.009 204.16 102.727C203.905 102.444 203.777 102.093 203.777 101.674ZM211.16 101.674C211.16 101.236 211.288 100.872 211.543 100.58C211.807 100.288 212.199 100.143 212.719 100.143C213.238 100.143 213.63 100.288 213.895 100.58C214.168 100.872 214.305 101.236 214.305 101.674C214.305 102.093 214.168 102.444 213.895 102.727C213.63 103.009 213.238 103.15 212.719 103.15C212.199 103.15 211.807 103.009 211.543 102.727C211.288 102.444 211.16 102.093 211.16 101.674Z" fill="white"/>
<path d="M59.3789 101.723C59.3789 104.262 58.9453 106.148 58.0781 107.383C57.2109 108.617 55.8555 109.234 54.0117 109.234C52.1914 109.234 50.8438 108.633 49.9688 107.43C49.0938 106.219 48.6406 104.414 48.6094 102.016V99.1211C48.6094 96.6133 49.043 94.75 49.9102 93.5312C50.7773 92.3125 52.1367 91.7031 53.9883 91.7031C55.8242 91.7031 57.1758 92.293 58.043 93.4727C58.9102 94.6445 59.3555 96.457 59.3789 98.9102V101.723ZM57.2109 98.7578C57.2109 96.9219 56.9531 95.5859 56.4375 94.75C55.9219 93.9062 55.1055 93.4844 53.9883 93.4844C52.8789 93.4844 52.0703 93.9023 51.5625 94.7383C51.0547 95.5742 50.793 96.8594 50.7773 98.5938V102.062C50.7773 103.906 51.043 105.27 51.5742 106.152C52.1133 107.027 52.9258 107.465 54.0117 107.465C55.082 107.465 55.875 107.051 56.3906 106.223C56.9141 105.395 57.1875 104.09 57.2109 102.309V98.7578Z" fill="white"/>
<path d="M108.805 109H106.625V94.5508L102.254 96.1562V94.1875L108.465 91.8555H108.805V109Z" fill="white"/>
<path d="M165.859 109H154.68V107.441L160.586 100.879C161.461 99.8867 162.062 99.082 162.391 98.4648C162.727 97.8398 162.895 97.1953 162.895 96.5312C162.895 95.6406 162.625 94.9102 162.086 94.3398C161.547 93.7695 160.828 93.4844 159.93 93.4844C158.852 93.4844 158.012 93.793 157.41 94.4102C156.816 95.0195 156.52 95.8711 156.52 96.9648H154.352C154.352 95.3945 154.855 94.125 155.863 93.1562C156.879 92.1875 158.234 91.7031 159.93 91.7031C161.516 91.7031 162.77 92.1211 163.691 92.957C164.613 93.7852 165.074 94.8906 165.074 96.2734C165.074 97.9531 164.004 99.9531 161.863 102.273L157.293 107.23H165.859V109Z" fill="white"/>
<path d="M255.539 109H253.277L244.688 95.8516V109H242.426V91.9375H244.688L253.301 105.145V91.9375H255.539V109Z" fill="white"/>
</svg>
