<svg width="300" height="200" viewBox="0 0 300 200" fill="none" xmlns="http://www.w3.org/2000/svg">
<rect width="300" height="200" fill="#1E1E1E"/>
<rect x="31.5" y="31.5" width="27" height="37" stroke="white" stroke-width="3"/>
<rect x="58.5" y="31.5" width="27" height="37" stroke="white" stroke-width="3"/>
<rect x="214.5" y="131.5" width="27" height="37" stroke="white" stroke-width="3"/>
<rect x="241.5" y="131.5" width="27" height="37" stroke="white" stroke-width="3"/>
<rect x="119.5" y="81.5" width="27" height="37" stroke="white" stroke-width="3"/>
<rect x="146.5" y="81.5" width="27" height="37" stroke="white" stroke-width="3"/>
<path d="M49.9043 56H48.208V50.085H41.7568V56H40.0693V43.2031H41.7568V48.7051H48.208V43.2031H49.9043V56Z" fill="white"/>
<path d="M232.957 145.592H228.844V157H227.165V145.592H223.061V144.203H232.957V145.592Z" fill="white"/>
<path d="M118.709 100.705C119.099 100.313 119.097 99.6799 118.705 99.2907L112.321 92.9469C111.929 92.5576 111.296 92.5596 110.907 92.9513C110.517 93.3431 110.519 93.9763 110.911 94.3656L116.586 100.004L110.947 105.679C110.558 106.071 110.56 106.704 110.951 107.093C111.343 107.483 111.976 107.481 112.366 107.089L118.709 100.705ZM102 77.9869C101.936 82.8487 102.085 86.7123 102.547 89.7669C103.008 92.8169 103.792 95.1468 105.064 96.8736C107.663 100.404 111.99 101.019 118.003 101L117.997 99C111.915 99.0193 108.614 98.3226 106.674 95.6878C105.676 94.3319 104.962 92.3657 104.525 89.4681C104.087 86.5752 103.937 82.8398 104 78.0131L102 77.9869Z" fill="white"/>
<path d="M84.4089 49.7122C102.485 50.8897 103.114 61.832 103 79" stroke="white" stroke-width="2"/>
<path d="M212.651 151.834C213.04 151.442 213.038 150.809 212.646 150.42L206.262 144.076C205.87 143.687 205.237 143.689 204.848 144.08C204.459 144.472 204.461 145.105 204.852 145.495L210.527 151.133L204.888 156.808C204.499 157.2 204.501 157.833 204.893 158.222C205.284 158.612 205.918 158.61 206.307 158.218L212.651 151.834ZM195.941 129.116C195.878 133.978 196.027 137.841 196.488 140.896C196.949 143.946 197.734 146.276 199.005 148.003C201.605 151.533 205.931 152.148 211.945 152.129L211.938 150.129C205.857 150.148 202.556 149.452 200.616 146.817C199.617 145.461 198.904 143.495 198.466 140.597C198.029 137.704 197.878 133.969 197.941 129.142L195.941 129.116Z" fill="white"/>
<path d="M174.5 100C192.576 101.178 197.056 112.961 196.941 130.129" stroke="white" stroke-width="2"/>
</svg>
