<svg width="300" height="200" viewBox="0 0 300 200" fill="none" xmlns="http://www.w3.org/2000/svg">
<rect width="300" height="200" fill="#1E1E1E"/>
<rect x="44.5" y="81.5" width="53" height="37" stroke="white" stroke-width="3"/>
<path d="M75.4043 106H73.708V100.085H67.2568V106H65.5693V93.2031H67.2568V98.7051H73.708V93.2031H75.4043V106Z" fill="white"/>
<path d="M235.457 94.5918H231.344V106H229.665V94.5918H225.561V93.2031H235.457V94.5918Z" fill="white"/>
<rect x="97.5" y="81.5" width="53" height="37" stroke="white" stroke-width="3"/>
<rect x="150.5" y="81.5" width="53" height="37" stroke="white" stroke-width="3"/>
<rect x="202.5" y="81.5" width="53" height="37" stroke="white" stroke-width="3"/>
<path d="M71.7071 59.2929C71.3166 58.9024 70.6834 58.9024 70.2929 59.2929L63.9289 65.6569C63.5384 66.0474 63.5384 66.6805 63.9289 67.0711C64.3195 67.4616 64.9526 67.4616 65.3431 67.0711L71 61.4142L76.6569 67.0711C77.0474 67.4616 77.6805 67.4616 78.0711 67.0711C78.4616 66.6805 78.4616 66.0474 78.0711 65.6569L71.7071 59.2929ZM72 82V60H70V82H72Z" fill="white"/>
<path d="M65.957 48.0098C65.957 48.8457 65.8164 49.5762 65.5352 50.2012C65.2539 50.8223 64.8555 51.2969 64.3398 51.625C63.8242 51.9531 63.2227 52.1172 62.5352 52.1172C61.8633 52.1172 61.2676 51.9531 60.748 51.625C60.2285 51.293 59.8242 50.8223 59.5352 50.2129C59.25 49.5996 59.1035 48.8906 59.0957 48.0859V47.4707C59.0957 46.6504 59.2383 45.9258 59.5234 45.2969C59.8086 44.668 60.2109 44.1875 60.7305 43.8555C61.2539 43.5195 61.8516 43.3516 62.5234 43.3516C63.207 43.3516 63.8086 43.5176 64.3281 43.8496C64.8516 44.1777 65.2539 44.6562 65.5352 45.2852C65.8164 45.9102 65.957 46.6387 65.957 47.4707V48.0098ZM64.8379 47.459C64.8379 46.4473 64.6348 45.6719 64.2285 45.1328C63.8223 44.5898 63.2539 44.3184 62.5234 44.3184C61.8125 44.3184 61.252 44.5898 60.8418 45.1328C60.4355 45.6719 60.2266 46.4219 60.2148 47.3828V48.0098C60.2148 48.9902 60.4199 49.7617 60.8301 50.3242C61.2441 50.8828 61.8125 51.1621 62.5352 51.1621C63.2617 51.1621 63.8242 50.8984 64.2227 50.3711C64.6211 49.8398 64.8262 49.0801 64.8379 48.0918V47.459ZM73.6504 43.4688V49.2695C73.6465 50.0742 73.3926 50.7324 72.8887 51.2441C72.3887 51.7559 71.709 52.043 70.8496 52.1055L70.5508 52.1172C69.6172 52.1172 68.873 51.8652 68.3184 51.3613C67.7637 50.8574 67.4824 50.1641 67.4746 49.2812V43.4688H68.5879V49.2461C68.5879 49.8633 68.7578 50.3438 69.0977 50.6875C69.4375 51.0273 69.9219 51.1973 70.5508 51.1973C71.1875 51.1973 71.6738 51.0273 72.0098 50.6875C72.3496 50.3477 72.5195 49.8691 72.5195 49.252V43.4688H73.6504ZM81.3203 44.3945H78.5781V52H77.459V44.3945H74.7227V43.4688H81.3203V44.3945Z" fill="white"/>
<path d="M228.293 80.7071C228.683 81.0976 229.317 81.0976 229.707 80.7071L236.071 74.3431C236.462 73.9526 236.462 73.3195 236.071 72.9289C235.681 72.5384 235.047 72.5384 234.657 72.9289L229 78.5858L223.343 72.9289C222.953 72.5384 222.319 72.5384 221.929 72.9289C221.538 73.3195 221.538 73.9526 221.929 74.3431L228.293 80.7071ZM228 60V80H230V60H228Z" fill="white"/>
<path d="M225.285 52H224.16V43.4688H225.285V52ZM233.904 52H232.773L228.479 45.4258V52H227.348V43.4688H228.479L232.785 50.0723V43.4688H233.904V52Z" fill="white"/>
</svg>
