<svg width="300" height="200" viewBox="0 0 300 200" fill="none" xmlns="http://www.w3.org/2000/svg">
<rect width="300" height="200" fill="#1E1E1E"/>
<rect x="21.5" y="151.5" width="107" height="27" stroke="white" stroke-width="3"/>
<rect x="21.5" y="70.5" width="107" height="27" stroke="white" stroke-width="3"/>
<rect x="171.5" y="41.5" width="107" height="27" stroke="white" stroke-width="3" stroke-miterlimit="16" stroke-dasharray="30 20"/>
<rect x="21.5" y="124.5" width="107" height="27" stroke="white" stroke-width="3"/>
<rect x="21.5" y="97.5" width="107" height="27" stroke="white" stroke-width="3"/>
<path d="M129.293 54.2929C128.902 54.6834 128.902 55.3166 129.293 55.7071L135.657 62.0711C136.047 62.4616 136.681 62.4616 137.071 62.0711C137.462 61.6805 137.462 61.0474 137.071 60.6569L131.414 55L137.071 49.3431C137.462 48.9526 137.462 48.3195 137.071 47.9289C136.681 47.5384 136.047 47.5384 135.657 47.9289L129.293 54.2929ZM169 54L130 54V56L169 56V54Z" fill="white"/>
<path d="M68.5469 80.5234H65.0625V90H62.7188V80.5234H59.2812V78.625H68.5469V80.5234ZM79.0156 84.5703C79.0156 85.6901 78.8177 86.6719 78.4219 87.5156C78.026 88.3594 77.4583 89.0104 76.7188 89.4688C75.9844 89.9271 75.1406 90.1562 74.1875 90.1562C73.2448 90.1562 72.4036 89.9297 71.6641 89.4766C70.9245 89.0234 70.3516 88.3776 69.9453 87.5391C69.5391 86.6953 69.3333 85.7266 69.3281 84.6328V84.0703C69.3281 82.9505 69.5286 81.9661 69.9297 81.1172C70.3359 80.263 70.9062 79.6094 71.6406 79.1562C72.3802 78.6979 73.224 78.4688 74.1719 78.4688C75.1198 78.4688 75.9609 78.6979 76.6953 79.1562C77.4349 79.6094 78.0052 80.263 78.4062 81.1172C78.8125 81.9661 79.0156 82.9479 79.0156 84.0625V84.5703ZM76.6406 84.0547C76.6406 82.862 76.4271 81.9557 76 81.3359C75.5729 80.7161 74.9635 80.4062 74.1719 80.4062C73.3854 80.4062 72.7786 80.7135 72.3516 81.3281C71.9245 81.9375 71.7083 82.8333 71.7031 84.0156V84.5703C71.7031 85.7318 71.9167 86.6328 72.3438 87.2734C72.7708 87.9141 73.3854 88.2344 74.1875 88.2344C74.974 88.2344 75.5781 87.9271 76 87.3125C76.4219 86.6927 76.6354 85.7917 76.6406 84.6094V84.0547ZM83.0625 85.9922V90H80.7188V78.625H85.1562C86.0104 78.625 86.7604 78.7812 87.4062 79.0938C88.0573 79.4062 88.5573 79.8516 88.9062 80.4297C89.2552 81.0026 89.4297 81.6562 89.4297 82.3906C89.4297 83.5052 89.0469 84.3854 88.2812 85.0312C87.5208 85.6719 86.4661 85.9922 85.1172 85.9922H83.0625ZM83.0625 84.0938H85.1562C85.776 84.0938 86.2474 83.9479 86.5703 83.6562C86.8984 83.3646 87.0625 82.9479 87.0625 82.4062C87.0625 81.849 86.8984 81.3984 86.5703 81.0547C86.2422 80.7109 85.7891 80.5339 85.2109 80.5234H83.0625V84.0938Z" fill="white"/>
</svg>
