<svg width="300" height="200" viewBox="0 0 300 200" fill="none" xmlns="http://www.w3.org/2000/svg">
<rect width="300" height="200" fill="#1E1E1E"/>
<line x1="150.008" y1="29.1113" x2="75.0075" y2="97.1113" stroke="white" stroke-width="3"/>
<line x1="119.739" y1="169.812" x2="72.7388" y2="96.812" stroke="white" stroke-width="3"/>
<line x1="39.627" y1="170.396" x2="72.627" y2="95.3959" stroke="white" stroke-width="3"/>
<line x1="150.016" y1="26.8967" x2="227.056" y2="97.854" stroke="white" stroke-width="3"/>
<circle cx="150" cy="30" r="18.5" fill="#1E1E1E" stroke="white" stroke-width="3"/>
<circle cx="225" cy="97" r="18.5" fill="#1E1E1E" stroke="#BB86FC" stroke-width="3"/>
<circle cx="75" cy="97" r="18.5" fill="#1E1E1E" stroke="white" stroke-width="3"/>
<circle cx="120" cy="170" r="18.5" fill="#1E1E1E" stroke="#BB86FC" stroke-width="3"/>
<circle cx="40" cy="170" r="18.5" fill="#1E1E1E" stroke="#BB86FC" stroke-width="3"/>
<path d="M154.404 37H152.708V31.085H146.257V37H144.569V24.2031H146.257V29.7051H152.708V24.2031H154.404V37Z" fill="white"/>
<path d="M79.6416 98.0146C79.6416 99.2686 79.4307 100.364 79.0088 101.302C78.5869 102.233 77.9893 102.945 77.2158 103.438C76.4424 103.93 75.54 104.176 74.5088 104.176C73.501 104.176 72.6074 103.93 71.8281 103.438C71.0488 102.939 70.4424 102.233 70.0088 101.319C69.5811 100.399 69.3613 99.3359 69.3496 98.1289V97.2061C69.3496 95.9756 69.5635 94.8887 69.9912 93.9453C70.4189 93.002 71.0225 92.2812 71.8018 91.7832C72.5869 91.2793 73.4834 91.0273 74.4912 91.0273C75.5166 91.0273 76.4189 91.2764 77.1982 91.7744C77.9834 92.2666 78.5869 92.9844 79.0088 93.9277C79.4307 94.8652 79.6416 95.958 79.6416 97.2061V98.0146ZM77.9629 97.1885C77.9629 95.6709 77.6582 94.5078 77.0488 93.6992C76.4395 92.8848 75.5869 92.4775 74.4912 92.4775C73.4248 92.4775 72.584 92.8848 71.9688 93.6992C71.3594 94.5078 71.0459 95.6328 71.0283 97.0742V98.0146C71.0283 99.4854 71.3359 100.643 71.9512 101.486C72.5723 102.324 73.4248 102.743 74.5088 102.743C75.5986 102.743 76.4424 102.348 77.04 101.557C77.6377 100.76 77.9453 99.6201 77.9629 98.1377V97.1885Z" fill="white"/>
<path d="M44.457 165.592H40.3438V177H38.665V165.592H34.5605V164.203H44.457V165.592Z" fill="white"/>
<path d="M116.995 171.99V177H115.308V164.203H120.027C121.428 164.203 122.523 164.561 123.314 165.275C124.111 165.99 124.51 166.937 124.51 168.114C124.51 169.356 124.12 170.314 123.341 170.988C122.567 171.656 121.457 171.99 120.01 171.99H116.995ZM116.995 170.61H120.027C120.93 170.61 121.621 170.399 122.102 169.978C122.582 169.55 122.822 168.935 122.822 168.132C122.822 167.37 122.582 166.761 122.102 166.304C121.621 165.847 120.962 165.609 120.124 165.592H116.995V170.61Z" fill="white"/>
<path d="M225.344 104H223.656V91.2031H225.344V104Z" fill="white"/>
</svg>
